<svg width="36" height="36" viewBox="0 0 36 36" fill="none" xmlns="http://www.w3.org/2000/svg">
<g id="Logo">
    <g id="logo">
        <path id="shape" d="M28.9077 12.8491L24.7429 17.9688L22.6123 15.3498C21.6165 14.1278 20.1235 13.4167 18.5453 13.4167H11.052C8.39122 13.4167 6.19119 15.4018 5.85659 17.9688C5.82823 17.7448 5.8125 17.5177 5.8125 17.286V9.54744C5.8125 6.65584 8.15911 4.31282 11.052 4.31282H24.8407C29.2534 4.31282 31.69 9.42761 28.9077 12.8491Z" fill="#4D37C9"/>
        <path id="shape_2" d="M24.7418 17.9685L22.6112 20.5874C21.6153 21.811 20.1224 22.5205 18.5442 22.5205H11.0509C8.3901 22.5205 6.19008 20.537 5.85547 17.9685C6.19008 15.4015 8.3901 13.4165 11.0509 13.4165H18.5442C20.1224 13.4165 21.6153 14.1275 22.6112 15.3495L24.7418 17.9685Z" fill="#7C71F4"/>
        <path id="shape_3" d="M24.8407 31.626H11.052C8.15927 31.626 5.8125 29.2814 5.8125 26.3896V18.6512C5.8125 18.4194 5.82823 18.1923 5.85659 17.9685C6.19119 20.5369 8.39122 22.5204 11.052 22.5204H18.5453C20.1235 22.5204 21.6165 21.8108 22.6123 20.5874L24.7429 17.9685L28.9077 23.0881C31.69 26.5095 29.2534 31.626 24.8407 31.626Z" fill="#583AFE"/>
    </g>
</g>
</svg>
